G75*
%MOIN*%
%OFA0B0*%
%FSLAX24Y24*%
%IPPOS*%
%LPD*%
%AMOC8*
5,1,8,0,0,1.08239X$1,22.5*
%
%ADD10C,0.0060*%
%ADD11C,0.0059*%
%ADD12C,0.0080*%
D10*
X008930Y007630D02*
X008930Y007800D01*
X008986Y007857D01*
X009100Y007857D01*
X009157Y007800D01*
X009157Y007630D01*
X009270Y007630D02*
X008930Y007630D01*
X009157Y007743D02*
X009270Y007857D01*
X009270Y007998D02*
X008930Y008225D01*
X008930Y007998D02*
X009270Y008225D01*
X009930Y008225D02*
X010270Y007998D01*
X010270Y008225D02*
X009930Y007998D01*
X009930Y007857D02*
X009930Y007630D01*
X009930Y007743D02*
X010270Y007743D01*
X010930Y007687D02*
X010986Y007630D01*
X010930Y007687D02*
X010930Y007800D01*
X010986Y007857D01*
X011043Y007857D01*
X011270Y007630D01*
X011270Y007857D01*
X011930Y007800D02*
X011986Y007857D01*
X012043Y007857D01*
X012100Y007800D01*
X012157Y007857D01*
X012213Y007857D01*
X012270Y007800D01*
X012270Y007687D01*
X012213Y007630D01*
X012100Y007743D02*
X012100Y007800D01*
X011930Y007800D02*
X011930Y007687D01*
X011986Y007630D01*
X012930Y007800D02*
X013100Y007630D01*
X013100Y007857D01*
X013270Y007800D02*
X012930Y007800D01*
X013930Y007857D02*
X013930Y007630D01*
X014100Y007630D01*
X014043Y007743D01*
X014043Y007800D01*
X014100Y007857D01*
X014213Y007857D01*
X014270Y007800D01*
X014270Y007687D01*
X014213Y007630D01*
X014930Y007857D02*
X014986Y007743D01*
X015100Y007630D01*
X015100Y007800D01*
X015157Y007857D01*
X015213Y007857D01*
X015270Y007800D01*
X015270Y007687D01*
X015213Y007630D01*
X015100Y007630D01*
X015930Y007630D02*
X015930Y007857D01*
X015986Y007857D01*
X016213Y007630D01*
X016270Y007630D01*
X017430Y007687D02*
X017430Y007800D01*
X017486Y007857D01*
X017543Y007857D01*
X017600Y007800D01*
X017600Y007687D01*
X017543Y007630D01*
X017486Y007630D01*
X017430Y007687D01*
X017600Y007687D02*
X017657Y007630D01*
X017713Y007630D01*
X017770Y007687D01*
X017770Y007800D01*
X017713Y007857D01*
X017657Y007857D01*
X017600Y007800D01*
X018430Y007800D02*
X018430Y007687D01*
X018486Y007630D01*
X018543Y007630D01*
X018600Y007687D01*
X018600Y007857D01*
X018713Y007857D02*
X018486Y007857D01*
X018430Y007800D01*
X018713Y007857D02*
X018770Y007800D01*
X018770Y007687D01*
X018713Y007630D01*
X019430Y007743D02*
X019770Y007743D01*
X019770Y007630D02*
X019770Y007857D01*
X019713Y007998D02*
X019486Y008225D01*
X019713Y008225D01*
X019770Y008168D01*
X019770Y008055D01*
X019713Y007998D01*
X019486Y007998D01*
X019430Y008055D01*
X019430Y008168D01*
X019486Y008225D01*
X019430Y007743D02*
X019543Y007630D01*
X020430Y007743D02*
X020770Y007743D01*
X020770Y007630D02*
X020770Y007857D01*
X020770Y007998D02*
X020770Y008225D01*
X020770Y008112D02*
X020430Y008112D01*
X020543Y007998D01*
X020430Y007743D02*
X020543Y007630D01*
X021430Y007743D02*
X021770Y007743D01*
X021770Y007630D02*
X021770Y007857D01*
X021770Y007998D02*
X021543Y008225D01*
X021486Y008225D01*
X021430Y008168D01*
X021430Y008055D01*
X021486Y007998D01*
X021430Y007743D02*
X021543Y007630D01*
X021770Y007998D02*
X021770Y008225D01*
X022430Y008168D02*
X022486Y008225D01*
X022543Y008225D01*
X022600Y008168D01*
X022657Y008225D01*
X022713Y008225D01*
X022770Y008168D01*
X022770Y008055D01*
X022713Y007998D01*
X022770Y007857D02*
X022770Y007630D01*
X022770Y007743D02*
X022430Y007743D01*
X022543Y007630D01*
X022486Y007998D02*
X022430Y008055D01*
X022430Y008168D01*
X022600Y008168D02*
X022600Y008112D01*
X023430Y008225D02*
X023770Y008225D01*
X023430Y007998D01*
X023770Y007998D01*
X023713Y007857D02*
X023600Y007857D01*
X023600Y007743D01*
X023713Y007630D02*
X023770Y007687D01*
X023770Y007800D01*
X023713Y007857D01*
X023486Y007857D02*
X023430Y007800D01*
X023430Y007687D01*
X023486Y007630D01*
X023713Y007630D01*
X024430Y007743D02*
X024543Y007857D01*
X024770Y007857D01*
X024770Y007998D02*
X024430Y007998D01*
X024430Y008168D01*
X024486Y008225D01*
X024600Y008225D01*
X024657Y008168D01*
X024657Y007998D01*
X024657Y008112D02*
X024770Y008225D01*
X024770Y008367D02*
X024430Y008367D01*
X024430Y008593D01*
X024430Y008735D02*
X024430Y008962D01*
X024600Y008848D02*
X024600Y008735D01*
X024770Y008735D02*
X024430Y008735D01*
X024600Y008480D02*
X024600Y008367D01*
X024770Y008367D02*
X024770Y008593D01*
X025430Y008480D02*
X025543Y008593D01*
X025770Y008593D01*
X025600Y008593D02*
X025600Y008367D01*
X025543Y008367D02*
X025430Y008480D01*
X025543Y008367D02*
X025770Y008367D01*
X025713Y008225D02*
X025486Y008225D01*
X025430Y008168D01*
X025430Y007998D01*
X025770Y007998D01*
X025770Y008168D01*
X025713Y008225D01*
X025713Y007857D02*
X025770Y007800D01*
X025770Y007687D01*
X025713Y007630D01*
X025600Y007687D02*
X025600Y007800D01*
X025657Y007857D01*
X025713Y007857D01*
X025600Y007687D02*
X025543Y007630D01*
X025486Y007630D01*
X025430Y007687D01*
X025430Y007800D01*
X025486Y007857D01*
X024770Y007630D02*
X024543Y007630D01*
X024430Y007743D01*
X024600Y007630D02*
X024600Y007857D01*
X023770Y008367D02*
X023770Y008537D01*
X023713Y008593D01*
X023486Y008593D01*
X023430Y008537D01*
X023430Y008367D01*
X023770Y008367D01*
X026430Y008367D02*
X026770Y008367D01*
X026770Y008593D01*
X026713Y008225D02*
X026770Y008168D01*
X026770Y008055D01*
X026713Y007998D01*
X026486Y007998D01*
X026430Y008055D01*
X026430Y008168D01*
X026486Y008225D01*
X026486Y007857D02*
X026430Y007800D01*
X026430Y007687D01*
X026486Y007630D01*
X026543Y007630D01*
X026600Y007687D01*
X026600Y007800D01*
X026657Y007857D01*
X026713Y007857D01*
X026770Y007800D01*
X026770Y007687D01*
X026713Y007630D01*
X009700Y021250D02*
X009600Y021250D01*
X009550Y021300D01*
X008650Y021300D01*
X008600Y021250D01*
X008500Y021250D01*
X008483Y021252D01*
X008466Y021256D01*
X008450Y021263D01*
X008436Y021273D01*
X008423Y021286D01*
X008413Y021300D01*
X008406Y021316D01*
X008402Y021333D01*
X008400Y021350D01*
X008400Y021850D02*
X008402Y021867D01*
X008406Y021884D01*
X008413Y021900D01*
X008423Y021914D01*
X008436Y021927D01*
X008450Y021937D01*
X008466Y021944D01*
X008483Y021948D01*
X008500Y021950D01*
X008600Y021950D01*
X008650Y021900D01*
X009550Y021900D01*
X009600Y021950D01*
X009700Y021950D01*
X009717Y021948D01*
X009734Y021944D01*
X009750Y021937D01*
X009764Y021927D01*
X009777Y021914D01*
X009787Y021900D01*
X009794Y021884D01*
X009798Y021867D01*
X009800Y021850D01*
X009800Y021350D02*
X009798Y021333D01*
X009794Y021316D01*
X009787Y021300D01*
X009777Y021286D01*
X009764Y021273D01*
X009750Y021263D01*
X009734Y021256D01*
X009717Y021252D01*
X009700Y021250D01*
X009200Y020450D02*
X009100Y020450D01*
X009050Y020400D01*
X008150Y020400D01*
X008100Y020450D01*
X008000Y020450D01*
X007983Y020448D01*
X007966Y020444D01*
X007950Y020437D01*
X007936Y020427D01*
X007923Y020414D01*
X007913Y020400D01*
X007906Y020384D01*
X007902Y020367D01*
X007900Y020350D01*
X007900Y019850D02*
X007902Y019833D01*
X007906Y019816D01*
X007913Y019800D01*
X007923Y019786D01*
X007936Y019773D01*
X007950Y019763D01*
X007966Y019756D01*
X007983Y019752D01*
X008000Y019750D01*
X008100Y019750D01*
X008150Y019800D01*
X009050Y019800D01*
X009100Y019750D01*
X009200Y019750D01*
X009217Y019752D01*
X009234Y019756D01*
X009250Y019763D01*
X009264Y019773D01*
X009277Y019786D01*
X009287Y019800D01*
X009294Y019816D01*
X009298Y019833D01*
X009300Y019850D01*
X009300Y020350D02*
X009298Y020367D01*
X009294Y020384D01*
X009287Y020400D01*
X009277Y020414D01*
X009264Y020427D01*
X009250Y020437D01*
X009234Y020444D01*
X009217Y020448D01*
X009200Y020450D01*
X009200Y022750D02*
X009100Y022750D01*
X009050Y022800D01*
X008150Y022800D01*
X008100Y022750D01*
X008000Y022750D01*
X007983Y022752D01*
X007966Y022756D01*
X007950Y022763D01*
X007936Y022773D01*
X007923Y022786D01*
X007913Y022800D01*
X007906Y022816D01*
X007902Y022833D01*
X007900Y022850D01*
X007900Y023350D02*
X007902Y023367D01*
X007906Y023384D01*
X007913Y023400D01*
X007923Y023414D01*
X007936Y023427D01*
X007950Y023437D01*
X007966Y023444D01*
X007983Y023448D01*
X008000Y023450D01*
X008100Y023450D01*
X008150Y023400D01*
X009050Y023400D01*
X009100Y023450D01*
X009200Y023450D01*
X009217Y023448D01*
X009234Y023444D01*
X009250Y023437D01*
X009264Y023427D01*
X009277Y023414D01*
X009287Y023400D01*
X009294Y023384D01*
X009298Y023367D01*
X009300Y023350D01*
X009300Y022850D02*
X009298Y022833D01*
X009294Y022816D01*
X009287Y022800D01*
X009277Y022786D01*
X009264Y022773D01*
X009250Y022763D01*
X009234Y022756D01*
X009217Y022752D01*
X009200Y022750D01*
X010080Y024585D02*
X010080Y024812D01*
X010193Y024925D01*
X010307Y024812D01*
X010307Y024585D01*
X010448Y024585D02*
X010448Y024812D01*
X010618Y024812D01*
X010675Y024755D01*
X010675Y024585D01*
X010817Y024642D02*
X010873Y024698D01*
X011043Y024698D01*
X011043Y024755D02*
X011043Y024585D01*
X010873Y024585D01*
X010817Y024642D01*
X010873Y024812D02*
X010987Y024812D01*
X011043Y024755D01*
X011185Y024585D02*
X011298Y024585D01*
X011242Y024585D02*
X011242Y024925D01*
X011185Y024925D01*
X011213Y025217D02*
X011270Y025273D01*
X011270Y025387D01*
X011213Y025444D01*
X011157Y025444D01*
X011100Y025387D01*
X011100Y025330D01*
X011100Y025387D02*
X011043Y025444D01*
X010986Y025444D01*
X010930Y025387D01*
X010930Y025273D01*
X010986Y025217D01*
X011430Y024755D02*
X011430Y024642D01*
X011487Y024585D01*
X011601Y024585D01*
X011657Y024642D01*
X011657Y024755D01*
X011601Y024812D01*
X011487Y024812D01*
X011430Y024755D01*
X011799Y024755D02*
X011799Y024642D01*
X011856Y024585D01*
X012026Y024585D01*
X012026Y024528D02*
X012026Y024812D01*
X011856Y024812D01*
X011799Y024755D01*
X011912Y024472D02*
X011969Y024472D01*
X012026Y024528D01*
X012535Y024585D02*
X012649Y024585D01*
X012592Y024585D02*
X012592Y024925D01*
X012535Y024925D02*
X012649Y024925D01*
X012781Y024812D02*
X012781Y024585D01*
X013008Y024585D02*
X013008Y024755D01*
X012951Y024812D01*
X012781Y024812D01*
X013043Y025217D02*
X012930Y025330D01*
X013270Y025330D01*
X013270Y025217D02*
X013270Y025444D01*
X013930Y025387D02*
X013930Y025273D01*
X013986Y025217D01*
X014213Y025217D01*
X013986Y025444D01*
X014213Y025444D01*
X014270Y025387D01*
X014270Y025273D01*
X014213Y025217D01*
X013986Y025444D02*
X013930Y025387D01*
X012270Y025444D02*
X012270Y025217D01*
X012043Y025444D01*
X011986Y025444D01*
X011930Y025387D01*
X011930Y025273D01*
X011986Y025217D01*
X010307Y024755D02*
X010080Y024755D01*
X010100Y025217D02*
X010100Y025444D01*
X010270Y025387D02*
X009930Y025387D01*
X010100Y025217D01*
X009270Y025273D02*
X009213Y025217D01*
X009270Y025273D02*
X009270Y025387D01*
X009213Y025444D01*
X009100Y025444D01*
X009043Y025387D01*
X009043Y025330D01*
X009100Y025217D01*
X008930Y025217D01*
X008930Y025444D01*
X015930Y025444D02*
X016270Y025444D01*
X015930Y025217D01*
X016270Y025217D01*
X016270Y025085D02*
X016270Y024971D01*
X016270Y025028D02*
X015930Y025028D01*
X015930Y024971D02*
X015930Y025085D01*
X015930Y024830D02*
X016157Y024830D01*
X016270Y024716D01*
X016157Y024603D01*
X015930Y024603D01*
X016930Y024650D02*
X016930Y024537D01*
X016986Y024480D01*
X017213Y024480D01*
X017270Y024537D01*
X017270Y024650D01*
X017213Y024707D01*
X017100Y024707D01*
X017100Y024593D01*
X016986Y024707D02*
X016930Y024650D01*
X016930Y024848D02*
X017270Y025075D01*
X016930Y025075D01*
X016930Y025217D02*
X016930Y025387D01*
X016986Y025444D01*
X017213Y025444D01*
X017270Y025387D01*
X017270Y025217D01*
X016930Y025217D01*
X016930Y024848D02*
X017270Y024848D01*
X017930Y024848D02*
X018270Y025075D01*
X017930Y025075D01*
X017930Y025217D02*
X017930Y025387D01*
X017986Y025444D01*
X018213Y025444D01*
X018270Y025387D01*
X018270Y025217D01*
X017930Y025217D01*
X017930Y024848D02*
X018270Y024848D01*
X018213Y024707D02*
X018100Y024707D01*
X018100Y024593D01*
X018213Y024480D02*
X017986Y024480D01*
X017930Y024537D01*
X017930Y024650D01*
X017986Y024707D01*
X018213Y024707D02*
X018270Y024650D01*
X018270Y024537D01*
X018213Y024480D01*
X018986Y024593D02*
X019213Y024593D01*
X019100Y024480D02*
X019100Y024707D01*
X019100Y024848D02*
X018930Y024848D01*
X018930Y025075D01*
X019043Y025019D02*
X019100Y025075D01*
X019213Y025075D01*
X019270Y025019D01*
X019270Y024905D01*
X019213Y024848D01*
X019100Y024848D02*
X019043Y024962D01*
X019043Y025019D01*
X018930Y025217D02*
X019157Y025217D01*
X019270Y025330D01*
X019157Y025444D01*
X018930Y025444D01*
X019930Y025444D02*
X020157Y025444D01*
X020270Y025330D01*
X020157Y025217D01*
X019930Y025217D01*
X019986Y025075D02*
X020043Y025075D01*
X020100Y025019D01*
X020157Y025075D01*
X020213Y025075D01*
X020270Y025019D01*
X020270Y024905D01*
X020213Y024848D01*
X020213Y024721D02*
X020270Y024721D01*
X020270Y024664D01*
X020213Y024664D01*
X020213Y024721D01*
X020213Y024523D02*
X020270Y024466D01*
X020270Y024353D01*
X020213Y024296D01*
X020100Y024409D02*
X020100Y024466D01*
X020157Y024523D01*
X020213Y024523D01*
X020100Y024466D02*
X020043Y024523D01*
X019986Y024523D01*
X019930Y024466D01*
X019930Y024353D01*
X019986Y024296D01*
X020100Y024154D02*
X020100Y023928D01*
X020213Y024041D02*
X019986Y024041D01*
X020930Y024480D02*
X020930Y024650D01*
X020986Y024707D01*
X021100Y024707D01*
X021157Y024650D01*
X021157Y024480D01*
X021270Y024480D02*
X020930Y024480D01*
X021157Y024593D02*
X021270Y024707D01*
X021213Y024848D02*
X021270Y024905D01*
X021270Y025019D01*
X021213Y025075D01*
X021157Y025075D01*
X021100Y025019D01*
X021100Y024905D01*
X021043Y024848D01*
X020986Y024848D01*
X020930Y024905D01*
X020930Y025019D01*
X020986Y025075D01*
X020930Y025217D02*
X020930Y025444D01*
X020930Y025330D02*
X021270Y025330D01*
X021930Y025217D02*
X021930Y025444D01*
X022100Y025330D02*
X022100Y025217D01*
X022270Y025217D02*
X021930Y025217D01*
X021930Y025075D02*
X021930Y024848D01*
X022270Y024848D01*
X022270Y025075D01*
X022100Y024962D02*
X022100Y024848D01*
X022100Y024707D02*
X022157Y024650D01*
X022157Y024480D01*
X022270Y024480D02*
X021930Y024480D01*
X021930Y024650D01*
X021986Y024707D01*
X022100Y024707D01*
X022157Y024593D02*
X022270Y024707D01*
X022213Y024339D02*
X021986Y024339D01*
X021930Y024282D01*
X021930Y024168D01*
X021986Y024112D01*
X022213Y024112D01*
X022270Y024168D01*
X022270Y024282D01*
X022213Y024339D01*
X022270Y023980D02*
X022270Y023866D01*
X022270Y023923D02*
X021930Y023923D01*
X021930Y023866D02*
X021930Y023980D01*
X020100Y024962D02*
X020100Y025019D01*
X019986Y025075D02*
X019930Y025019D01*
X019930Y024905D01*
X019986Y024848D01*
X008450Y016200D02*
X008450Y016100D01*
X008400Y016050D01*
X008400Y015150D01*
X008450Y015100D01*
X008450Y015000D01*
X008448Y014983D01*
X008444Y014966D01*
X008437Y014950D01*
X008427Y014936D01*
X008414Y014923D01*
X008400Y014913D01*
X008384Y014906D01*
X008367Y014902D01*
X008350Y014900D01*
X007850Y014900D02*
X007833Y014902D01*
X007816Y014906D01*
X007800Y014913D01*
X007786Y014923D01*
X007773Y014936D01*
X007763Y014950D01*
X007756Y014966D01*
X007752Y014983D01*
X007750Y015000D01*
X007750Y015100D01*
X007800Y015150D01*
X007800Y016050D01*
X007750Y016100D01*
X007750Y016200D01*
X007752Y016217D01*
X007756Y016234D01*
X007763Y016250D01*
X007773Y016264D01*
X007786Y016277D01*
X007800Y016287D01*
X007816Y016294D01*
X007833Y016298D01*
X007850Y016300D01*
X008350Y016300D02*
X008367Y016298D01*
X008384Y016294D01*
X008400Y016287D01*
X008414Y016277D01*
X008427Y016264D01*
X008437Y016250D01*
X008444Y016234D01*
X008448Y016217D01*
X008450Y016200D01*
D11*
X026014Y024252D02*
X026252Y024014D01*
X026598Y024297D01*
X026666Y024258D01*
X026737Y024225D01*
X026935Y024702D01*
X026871Y024735D01*
X026813Y024779D01*
X026763Y024832D01*
X026723Y024892D01*
X026694Y024958D01*
X026675Y025028D01*
X026669Y025100D01*
X026677Y025180D01*
X026699Y025258D01*
X026736Y025330D01*
X026785Y025394D01*
X026846Y025448D01*
X026915Y025489D01*
X026991Y025517D01*
X027071Y025530D01*
X027151Y025528D01*
X027230Y025510D01*
X027305Y025479D01*
X027372Y025434D01*
X027429Y025377D01*
X027475Y025311D01*
X027508Y025237D01*
X027527Y025159D01*
X027530Y025078D01*
X027518Y024998D01*
X027492Y024922D01*
X027452Y024852D01*
X027399Y024790D01*
X027336Y024740D01*
X027265Y024702D01*
X027463Y024225D01*
X027534Y024258D01*
X027602Y024297D01*
X027948Y024014D01*
X028186Y024252D01*
X027903Y024598D01*
X027954Y024690D01*
X027994Y024786D01*
X028023Y024887D01*
X028468Y024932D01*
X028468Y025268D01*
X028023Y025313D01*
X027994Y025414D01*
X027954Y025510D01*
X027903Y025602D01*
X028186Y025948D01*
X027948Y026186D01*
X027602Y025903D01*
X027510Y025954D01*
X027414Y025994D01*
X027313Y026023D01*
X027268Y026468D01*
X026932Y026468D01*
X026887Y026023D01*
X026786Y025994D01*
X026690Y025954D01*
X026598Y025903D01*
X026252Y026186D01*
X026014Y025948D01*
X026297Y025602D01*
X026246Y025510D01*
X026206Y025414D01*
X026177Y025313D01*
X025732Y025268D01*
X025732Y024932D01*
X026177Y024887D01*
X026206Y024786D01*
X026246Y024690D01*
X026297Y024598D01*
X026014Y024252D01*
X026032Y024273D02*
X026569Y024273D01*
X026639Y024273D02*
X026758Y024273D01*
X026781Y024331D02*
X026079Y024331D01*
X026126Y024388D02*
X026805Y024388D01*
X026829Y024446D02*
X026173Y024446D01*
X026220Y024503D02*
X026853Y024503D01*
X026877Y024561D02*
X026266Y024561D01*
X026285Y024619D02*
X026901Y024619D01*
X026924Y024676D02*
X026254Y024676D01*
X026228Y024734D02*
X026874Y024734D01*
X026801Y024791D02*
X026205Y024791D01*
X026188Y024849D02*
X026752Y024849D01*
X026717Y024906D02*
X025985Y024906D01*
X025732Y024964D02*
X026692Y024964D01*
X026677Y025021D02*
X025732Y025021D01*
X025732Y025079D02*
X026671Y025079D01*
X026673Y025137D02*
X025732Y025137D01*
X025732Y025194D02*
X026681Y025194D01*
X026698Y025252D02*
X025732Y025252D01*
X026139Y025309D02*
X026725Y025309D01*
X026764Y025367D02*
X026192Y025367D01*
X026211Y025424D02*
X026820Y025424D01*
X026903Y025482D02*
X026234Y025482D01*
X026262Y025539D02*
X027938Y025539D01*
X027966Y025482D02*
X027298Y025482D01*
X027382Y025424D02*
X027989Y025424D01*
X028008Y025367D02*
X027437Y025367D01*
X027476Y025309D02*
X028061Y025309D01*
X027906Y025597D02*
X026294Y025597D01*
X026254Y025655D02*
X027946Y025655D01*
X027993Y025712D02*
X026207Y025712D01*
X026160Y025770D02*
X028040Y025770D01*
X028087Y025827D02*
X026113Y025827D01*
X026066Y025885D02*
X028134Y025885D01*
X028181Y025942D02*
X027650Y025942D01*
X027720Y026000D02*
X028134Y026000D01*
X028077Y026057D02*
X027791Y026057D01*
X027862Y026115D02*
X028019Y026115D01*
X027962Y026173D02*
X027932Y026173D01*
X027531Y025942D02*
X026669Y025942D01*
X026550Y025942D02*
X026019Y025942D01*
X026066Y026000D02*
X026480Y026000D01*
X026409Y026057D02*
X026123Y026057D01*
X026181Y026115D02*
X026338Y026115D01*
X026268Y026173D02*
X026238Y026173D01*
X026807Y026000D02*
X027393Y026000D01*
X027310Y026057D02*
X026890Y026057D01*
X026896Y026115D02*
X027304Y026115D01*
X027298Y026173D02*
X026902Y026173D01*
X026908Y026230D02*
X027292Y026230D01*
X027286Y026288D02*
X026914Y026288D01*
X026920Y026345D02*
X027280Y026345D01*
X027275Y026403D02*
X026925Y026403D01*
X026931Y026460D02*
X027269Y026460D01*
X027502Y025252D02*
X028468Y025252D01*
X028468Y025194D02*
X027518Y025194D01*
X027528Y025137D02*
X028468Y025137D01*
X028468Y025079D02*
X027530Y025079D01*
X027522Y025021D02*
X028468Y025021D01*
X028468Y024964D02*
X027507Y024964D01*
X027483Y024906D02*
X028215Y024906D01*
X028012Y024849D02*
X027449Y024849D01*
X027400Y024791D02*
X027995Y024791D01*
X027972Y024734D02*
X027324Y024734D01*
X027276Y024676D02*
X027946Y024676D01*
X027915Y024619D02*
X027299Y024619D01*
X027323Y024561D02*
X027934Y024561D01*
X027980Y024503D02*
X027347Y024503D01*
X027371Y024446D02*
X028027Y024446D01*
X028074Y024388D02*
X027395Y024388D01*
X027419Y024331D02*
X028121Y024331D01*
X028168Y024273D02*
X027631Y024273D01*
X027561Y024273D02*
X027442Y024273D01*
X027701Y024216D02*
X028150Y024216D01*
X028092Y024158D02*
X027772Y024158D01*
X027842Y024101D02*
X028035Y024101D01*
X027977Y024043D02*
X027913Y024043D01*
X026499Y024216D02*
X026050Y024216D01*
X026108Y024158D02*
X026428Y024158D01*
X026358Y024101D02*
X026165Y024101D01*
X026223Y024043D02*
X026287Y024043D01*
D12*
X027850Y023100D02*
X028350Y023100D01*
X024923Y021466D02*
X024923Y013395D01*
X023939Y013395D01*
X023939Y021466D01*
X024923Y021466D01*
X016261Y021466D02*
X016261Y013395D01*
X015277Y013395D01*
X015277Y021466D01*
X016261Y021466D01*
X014100Y022850D02*
X014100Y023350D01*
X010100Y023350D02*
X010100Y022850D01*
X009100Y018850D02*
X009100Y018350D01*
X009100Y016350D02*
X009100Y015850D01*
X009100Y013850D02*
X009100Y013350D01*
X009100Y011350D02*
X009100Y010850D01*
X012100Y010850D02*
X012100Y011350D01*
X012100Y013350D02*
X012100Y013850D01*
X012100Y015850D02*
X012100Y016350D01*
X012100Y018350D02*
X012100Y018850D01*
X027850Y012100D02*
X028350Y012100D01*
M02*
