G75*
%MOIN*%
%OFA0B0*%
%FSLAX24Y24*%
%IPPOS*%
%LPD*%
%AMOC8*
5,1,8,0,0,1.08239X$1,22.5*
%
%ADD10C,0.0180*%
%ADD11C,0.0120*%
%ADD12C,0.0740*%
%ADD13C,0.0600*%
%ADD14C,0.0740*%
%ADD15OC8,0.0560*%
%ADD16C,0.0320*%
D10*
X021690Y013494D02*
X021690Y014101D01*
X021994Y014404D01*
X021994Y015032D02*
X021690Y015335D01*
X021690Y015942D01*
X021994Y016246D01*
X023208Y016246D01*
X023512Y015942D01*
X023512Y015335D01*
X023208Y015032D01*
X021994Y015032D01*
X023208Y014404D02*
X023512Y014101D01*
X023512Y013494D01*
X023208Y013190D01*
X021994Y013190D01*
X021690Y013494D01*
X021994Y016873D02*
X021690Y017177D01*
X021690Y017784D01*
X021994Y018088D01*
X022297Y018088D01*
X022601Y017784D01*
X022601Y017177D01*
X022904Y016873D01*
X023208Y016873D01*
X023512Y017177D01*
X023512Y017784D01*
X023208Y018088D01*
X023512Y018715D02*
X021690Y018715D01*
X021690Y019929D01*
X021994Y020556D02*
X021690Y020860D01*
X021690Y021467D01*
X021994Y021771D01*
X023208Y021771D01*
X023512Y021467D01*
X023512Y020860D01*
X023208Y020556D01*
X021994Y020556D01*
X022297Y021163D02*
X021690Y021771D01*
X023512Y019929D02*
X023512Y018715D01*
X022601Y018715D02*
X022601Y019322D01*
D11*
X021041Y018113D02*
X020811Y018343D01*
X019890Y017422D01*
X019660Y017653D01*
X019660Y018113D01*
X019890Y018343D01*
X020811Y018343D01*
X021041Y018113D02*
X021041Y017653D01*
X020811Y017422D01*
X019890Y017422D01*
X019430Y016962D02*
X019430Y016041D01*
X019660Y015581D02*
X020120Y015120D01*
X020120Y015351D02*
X020120Y014660D01*
X019660Y014660D02*
X021041Y014660D01*
X021041Y015351D01*
X020811Y015581D01*
X020351Y015581D01*
X020120Y015351D01*
X020351Y018804D02*
X020351Y019724D01*
X020581Y020185D02*
X021041Y020645D01*
X019660Y020645D01*
X019660Y020185D02*
X019660Y021106D01*
D12*
X009100Y007100D03*
X010100Y007100D03*
X011100Y007100D03*
X012100Y007100D03*
X013100Y007100D03*
X014100Y007100D03*
X015100Y007100D03*
X016100Y007100D03*
X017600Y007100D03*
X018600Y007100D03*
X019600Y007100D03*
X020600Y007100D03*
X021600Y007100D03*
X022600Y007100D03*
X023600Y007100D03*
X024600Y007100D03*
X025600Y007100D03*
X026600Y007100D03*
X023100Y026100D03*
X022100Y026100D03*
X021100Y026100D03*
X020100Y026100D03*
X019100Y026100D03*
X018100Y026100D03*
X017100Y026100D03*
X016100Y026100D03*
X014100Y026100D03*
X013100Y026100D03*
X012100Y026100D03*
X011100Y026100D03*
X010100Y026100D03*
X009100Y026100D03*
D13*
X015769Y020974D03*
X015769Y020187D03*
X015769Y019399D03*
X015769Y018612D03*
X015769Y017824D03*
X015769Y017037D03*
X015769Y016250D03*
X015769Y015462D03*
X015769Y014675D03*
X015769Y013887D03*
X024431Y013887D03*
X024431Y014675D03*
X024431Y015462D03*
X024431Y016250D03*
X024431Y017037D03*
X024431Y017824D03*
X024431Y018612D03*
X024431Y019399D03*
X024431Y020187D03*
X024431Y020974D03*
D14*
X027730Y020600D02*
X028470Y020600D01*
X028470Y019600D02*
X027730Y019600D01*
X027730Y018600D02*
X028470Y018600D01*
X028470Y017600D02*
X027730Y017600D01*
X027730Y016600D02*
X028470Y016600D01*
X028470Y015600D02*
X027730Y015600D01*
X027730Y014600D02*
X028470Y014600D01*
X028470Y013600D02*
X027730Y013600D01*
X027730Y012600D02*
X028470Y012600D01*
X028470Y021600D02*
X027730Y021600D01*
X027730Y022600D02*
X028470Y022600D01*
X013600Y022730D02*
X013600Y023470D01*
X012600Y023470D02*
X012600Y022730D01*
X011600Y022730D02*
X011600Y023470D01*
X010600Y023470D02*
X010600Y022730D01*
X010600Y018970D02*
X010600Y018230D01*
X009600Y018230D02*
X009600Y018970D01*
X011600Y018970D02*
X011600Y018230D01*
X011600Y016470D02*
X011600Y015730D01*
X010600Y015730D02*
X010600Y016470D01*
X009600Y016470D02*
X009600Y015730D01*
X009600Y013970D02*
X009600Y013230D01*
X010600Y013230D02*
X010600Y013970D01*
X011600Y013970D02*
X011600Y013230D01*
X011600Y011470D02*
X011600Y010730D01*
X010600Y010730D02*
X010600Y011470D01*
X009600Y011470D02*
X009600Y010730D01*
D15*
X008100Y014600D03*
X008100Y016600D03*
X007600Y020100D03*
X008100Y021600D03*
X007600Y023100D03*
X009600Y023100D03*
X010100Y021600D03*
X009600Y020100D03*
D16*
X010600Y021100D01*
X012600Y021100D01*
X013600Y022100D01*
X013600Y023100D01*
X015100Y024600D01*
X016600Y024600D01*
X017100Y025100D01*
X017100Y026100D01*
X018100Y026100D01*
X018100Y026600D01*
X018600Y027100D01*
X023600Y027100D01*
X024100Y026600D01*
X024100Y024100D01*
X025600Y022600D01*
X028100Y022600D01*
X028100Y021600D02*
X025600Y021600D01*
X024100Y023100D01*
X020100Y023100D01*
X020100Y026100D01*
X019100Y026100D02*
X019100Y024600D01*
X017600Y023100D01*
X016100Y023100D01*
X013100Y020100D01*
X011100Y020100D01*
X010600Y019600D01*
X010600Y018600D01*
X010600Y016100D01*
X010600Y013600D01*
X010600Y011100D01*
X009600Y011100D02*
X009600Y013600D01*
X008600Y013600D01*
X008100Y014100D01*
X008100Y014600D01*
X009600Y013600D02*
X009600Y016100D01*
X009600Y018600D01*
X009600Y020100D01*
X008600Y020600D02*
X008600Y017100D01*
X008100Y016600D01*
X011600Y016100D02*
X012600Y015100D01*
X012600Y013600D01*
X013100Y013100D01*
X013100Y009600D01*
X015100Y007600D01*
X015100Y007100D01*
X016100Y007100D02*
X016100Y007600D01*
X013600Y010100D01*
X013600Y013600D01*
X013100Y014100D01*
X013100Y018100D01*
X012600Y018600D01*
X011600Y018600D01*
X014100Y019100D02*
X015100Y020100D01*
X015769Y020187D01*
X015769Y019399D02*
X015100Y019100D01*
X014600Y018600D01*
X014600Y011100D01*
X016100Y009600D01*
X018600Y009600D01*
X019600Y008600D01*
X019600Y007100D01*
X018600Y007100D02*
X018600Y008100D01*
X018100Y008600D01*
X016100Y008600D01*
X014100Y010600D01*
X014100Y019100D01*
X015769Y020974D02*
X017974Y020974D01*
X020100Y023100D01*
X014100Y025100D02*
X014100Y026100D01*
X013100Y026100D02*
X013100Y025100D01*
X012600Y024600D01*
X009100Y024600D01*
X008600Y024100D01*
X008600Y022600D01*
X008100Y022100D01*
X008100Y021600D01*
X008100Y021100D01*
X008600Y020600D01*
X007600Y020100D02*
X007100Y020600D01*
X007100Y022600D01*
X007600Y023100D01*
X007600Y024600D01*
X008100Y025100D01*
X011600Y025100D01*
X012100Y025600D01*
X012100Y026100D01*
X014100Y025100D02*
X012600Y023600D01*
X012600Y023100D01*
X011600Y023100D02*
X011600Y022100D01*
X011100Y021600D01*
X010100Y021600D01*
X010600Y023100D02*
X009600Y023100D01*
X015982Y014100D02*
X015769Y013887D01*
X015982Y014100D02*
X018600Y014100D01*
X023600Y009100D01*
X023600Y007100D01*
X028100Y006100D02*
X029600Y007600D01*
X029600Y019100D01*
X029100Y019600D01*
X028100Y019600D01*
X028100Y020600D02*
X029600Y020600D01*
X030600Y019600D01*
X030600Y007600D01*
X028600Y005600D01*
X012100Y005600D01*
X011100Y006600D01*
X011100Y007100D01*
X012100Y007100D02*
X012100Y006600D01*
X012600Y006100D01*
X028100Y006100D01*
X014100Y007100D02*
X014100Y007600D01*
X012600Y009100D01*
X012600Y012100D01*
X011600Y013100D01*
X011600Y013600D01*
X011600Y011100D02*
X011600Y008600D01*
X012100Y008100D01*
X012600Y008100D01*
X013100Y007600D01*
X013100Y007100D01*
M02*
