%
M48
M72
T01C0.0315
T02C0.0320
T03C0.0400
T04C0.0440
%
T01
X15769Y13887
X15769Y14675
X15769Y15462
X15769Y16250
X15769Y17037
X15769Y17824
X15769Y18612
X15769Y19399
X15769Y20187
X15769Y20974
X24431Y20974
X24431Y20187
X24431Y19399
X24431Y18612
X24431Y17824
X24431Y17037
X24431Y16250
X24431Y15462
X24431Y14675
X24431Y13887
T02
X10100Y21600
X9600Y23100
X8100Y21600
X7600Y23100
X7600Y20100
X9600Y20100
X8100Y16600
X8100Y14600
T03
X9100Y7100
X10100Y7100
X11100Y7100
X12100Y7100
X13100Y7100
X14100Y7100
X15100Y7100
X16100Y7100
X17600Y7100
X18600Y7100
X19600Y7100
X20600Y7100
X21600Y7100
X22600Y7100
X23600Y7100
X24600Y7100
X25600Y7100
X26600Y7100
X23100Y26100
X22100Y26100
X21100Y26100
X20100Y26100
X19100Y26100
X18100Y26100
X17100Y26100
X16100Y26100
X14100Y26100
X13100Y26100
X12100Y26100
X11100Y26100
X10100Y26100
X9100Y26100
T04
X10600Y23100
X11600Y23100
X12600Y23100
X13600Y23100
X11600Y18600
X10600Y18600
X9600Y18600
X9600Y16100
X10600Y16100
X11600Y16100
X11600Y13600
X10600Y13600
X9600Y13600
X9600Y11100
X10600Y11100
X11600Y11100
X28100Y12600
X28100Y13600
X28100Y14600
X28100Y15600
X28100Y16600
X28100Y17600
X28100Y18600
X28100Y19600
X28100Y20600
X28100Y21600
X28100Y22600
M30
