G75*
%MOIN*%
%OFA0B0*%
%FSLAX24Y24*%
%IPPOS*%
%LPD*%
%AMOC8*
5,1,8,0,0,1.08239X$1,22.5*
%
%ADD10C,0.0820*%
%ADD11C,0.0680*%
%ADD12C,0.0820*%
%ADD13OC8,0.0640*%
D10*
X009100Y007100D03*
X010100Y007100D03*
X011100Y007100D03*
X012100Y007100D03*
X013100Y007100D03*
X014100Y007100D03*
X015100Y007100D03*
X016100Y007100D03*
X017600Y007100D03*
X018600Y007100D03*
X019600Y007100D03*
X020600Y007100D03*
X021600Y007100D03*
X022600Y007100D03*
X023600Y007100D03*
X024600Y007100D03*
X025600Y007100D03*
X026600Y007100D03*
X023100Y026100D03*
X022100Y026100D03*
X021100Y026100D03*
X020100Y026100D03*
X019100Y026100D03*
X018100Y026100D03*
X017100Y026100D03*
X016100Y026100D03*
X014100Y026100D03*
X013100Y026100D03*
X012100Y026100D03*
X011100Y026100D03*
X010100Y026100D03*
X009100Y026100D03*
D11*
X015769Y020974D03*
X015769Y020187D03*
X015769Y019399D03*
X015769Y018612D03*
X015769Y017824D03*
X015769Y017037D03*
X015769Y016250D03*
X015769Y015462D03*
X015769Y014675D03*
X015769Y013887D03*
X024431Y013887D03*
X024431Y014675D03*
X024431Y015462D03*
X024431Y016250D03*
X024431Y017037D03*
X024431Y017824D03*
X024431Y018612D03*
X024431Y019399D03*
X024431Y020187D03*
X024431Y020974D03*
D12*
X027730Y020600D02*
X028470Y020600D01*
X028470Y019600D02*
X027730Y019600D01*
X027730Y018600D02*
X028470Y018600D01*
X028470Y017600D02*
X027730Y017600D01*
X027730Y016600D02*
X028470Y016600D01*
X028470Y015600D02*
X027730Y015600D01*
X027730Y014600D02*
X028470Y014600D01*
X028470Y013600D02*
X027730Y013600D01*
X027730Y012600D02*
X028470Y012600D01*
X028470Y021600D02*
X027730Y021600D01*
X027730Y022600D02*
X028470Y022600D01*
X013600Y022730D02*
X013600Y023470D01*
X012600Y023470D02*
X012600Y022730D01*
X011600Y022730D02*
X011600Y023470D01*
X010600Y023470D02*
X010600Y022730D01*
X010600Y018970D02*
X010600Y018230D01*
X009600Y018230D02*
X009600Y018970D01*
X011600Y018970D02*
X011600Y018230D01*
X011600Y016470D02*
X011600Y015730D01*
X010600Y015730D02*
X010600Y016470D01*
X009600Y016470D02*
X009600Y015730D01*
X009600Y013970D02*
X009600Y013230D01*
X010600Y013230D02*
X010600Y013970D01*
X011600Y013970D02*
X011600Y013230D01*
X011600Y011470D02*
X011600Y010730D01*
X010600Y010730D02*
X010600Y011470D01*
X009600Y011470D02*
X009600Y010730D01*
D13*
X008100Y014600D03*
X008100Y016600D03*
X007600Y020100D03*
X008100Y021600D03*
X007600Y023100D03*
X009600Y023100D03*
X010100Y021600D03*
X009600Y020100D03*
M02*
